<svg width="50" height="34" viewBox="0 0 50 34" fill="none" xmlns="http://www.w3.org/2000/svg">
<path d="M49.0287 23.3519C49.0287 25.9155 46.9504 27.9937 44.3868 27.9937C41.8231 27.9937 39.7449 25.9155 39.7449 23.3519C39.7449 20.7883 41.8231 18.7101 44.3868 18.7101C46.9504 18.7101 49.0287 20.7883 49.0287 23.3519Z" fill="#FFBD1B"/>
<path d="M27.5997 24.4445C27.7612 24.3421 27.9639 24.2292 28.1981 24.1078C30.4704 22.9301 35.795 20.9567 36.8906 20.5073C37.011 20.476 37.0999 20.3679 37.0999 20.238C37.0999 20.2313 37.098 20.2256 37.098 20.2199C37.0999 20.2181 37.1009 20.2171 37.1028 20.2152C37.1248 19.3931 37.1066 16.2818 37.0292 15.2748C37.0253 15.2738 37.0234 15.2719 37.0196 15.271C37.0034 15.1117 36.8695 14.9874 36.7051 14.9874C36.6917 14.9874 36.6802 14.9893 36.6669 14.9912C36.6659 14.9893 36.664 14.9874 36.6621 14.9846C35.6861 15.0908 32.7111 15.472 31.5382 15.618C30.2763 15.7754 29.0116 15.8902 27.7421 15.9215C26.8836 15.9423 26.0261 15.9395 25.1667 15.893C24.3255 15.8485 23.4862 15.784 22.6526 15.6768C21.102 15.4767 19.5677 15.1638 18.0076 15.0149C16.5804 14.8784 15.157 14.8281 13.7269 14.9723C11.9717 15.1486 10.3141 15.6304 8.76451 16.4667C8.40698 16.6602 7.39845 17.0708 7.35065 17.5373C7.3344 17.6985 7.39558 17.8559 7.45867 18.0048C7.88694 19.0175 8.44331 19.9762 9.11152 20.8515C9.20902 20.9795 9.31131 21.1085 9.44801 21.1957C9.89253 21.4811 10.4412 21.2204 10.8896 21.098C11.25 20.9994 11.6104 20.8799 11.9746 20.7851C12.3331 20.6912 12.6457 20.5405 13.0252 20.5073C13.3865 20.476 13.7498 20.5063 14.1016 20.5955C14.8023 20.7747 15.4457 21.1834 15.8816 21.758C16.5622 22.6551 16.7104 23.9201 16.262 24.9508C16.0049 25.5416 15.5613 26.0556 15.0002 26.3789C14.2765 26.7962 13.4076 26.8834 12.5702 26.8787C11.3666 26.872 10.1564 26.6814 9.02357 26.2727C8.45669 26.0679 7.90988 25.8071 7.40036 25.4857C6.90518 25.1737 6.50559 24.7337 6.01901 24.4264C5.86128 24.3269 5.53434 24.1979 5.52096 24.1932C5.43683 24.1619 5.23035 24.1391 5.21983 24.1391C4.90915 24.1391 4.63766 24.3003 4.48279 24.5421C4.4283 24.6246 4.36617 24.691 4.32697 24.7432C4.05357 25.1045 1.09394 29.6163 1.09394 29.6163C0.78421 30.0933 1.10732 30.501 1.54419 30.1853L2.20762 29.7064C2.44374 29.9567 2.72766 30.1691 2.95136 30.3171C4.49809 31.3393 6.15189 32.1301 7.95195 32.6119C9.59332 33.0509 11.2548 33.2472 12.9544 33.0955C14.5834 32.9504 16.1148 32.4763 17.5774 31.7679C19.2561 30.9543 20.7617 29.8903 22.1746 28.6965C22.3209 28.5732 22.4662 28.449 22.6096 28.3229C24.1974 26.9337 25.8072 25.5748 27.5987 24.4426L27.5997 24.4445Z" fill="white"/>
<path d="M37.956 28.9432C38.3011 28.4909 38.0105 28.0603 37.5497 28.342L36.9245 28.7241C36.807 28.5866 36.6731 28.4634 36.5393 28.3429C34.636 26.6228 32.4268 25.6499 29.8266 25.6261C29.4127 25.6224 29.0484 25.5996 28.6479 25.7276C28.2215 25.8642 27.8296 26.0908 27.4644 26.344C26.041 27.3302 24.7189 28.4368 23.4169 29.5766C23.285 29.6923 23.1512 29.8061 23.0173 29.9189C23.0747 29.9379 23.132 29.9569 23.1894 29.9749C25.2915 30.6358 27.3354 31.439 29.2817 32.4726C29.9728 32.8396 30.6506 33.2303 31.3647 33.5517C31.5922 33.6542 31.8226 33.7509 32.0568 33.8391C32.9306 34.171 33.6829 33.9813 34.3492 33.3403C35.3271 32.3996 36.9647 30.2527 36.9637 30.2518C37.0201 30.1892 37.9541 28.9413 37.9541 28.9413L37.956 28.9432Z" fill="white"/>
<path d="M14.6308 6.32446C14.8276 6.01793 15.4361 6.30175 15.7038 6.31388C16.2265 6.33686 16.7367 6.21353 17.1907 5.95951C17.347 5.87194 17.5092 5.8028 17.6756 5.75059C17.9496 5.66559 18.2381 5.62467 18.5354 5.62067C18.7616 5.61781 18.983 5.66698 19.2221 5.67527C19.2353 5.67562 19.0683 5.40137 19.0373 5.37485C18.9395 5.28895 18.8199 5.26055 18.7035 5.21463C18.5971 5.17229 18.4859 5.08176 18.4961 4.96675C18.5034 4.88694 18.5675 4.82589 18.6296 4.77805C18.9291 4.54528 19.3224 4.36085 19.7119 4.36746C20.0597 4.37432 20.3479 4.55095 20.7008 4.52162C20.7501 4.51703 20.7985 4.50959 20.847 4.50147L20.8457 4.50111C21.1281 4.45112 21.4017 4.33351 21.6708 4.24465C22.3999 4.00227 23.127 3.96447 23.812 4.0842C25.9831 3.72741 28.2456 4.71653 29.4108 6.73465C29.8701 7.53007 30.1039 8.39332 30.1355 9.25149C30.0542 9.34385 29.9697 9.43485 29.8814 9.52225C29.1001 10.295 28.0773 10.8172 26.7764 10.6405C26.4575 10.5972 26.1639 10.82 26.1203 11.1388C26.077 11.4579 26.3002 11.7522 26.6192 11.7958C27.9372 11.9748 29.0373 11.6064 29.9127 11.0062C29.5301 12.2952 28.6744 13.4463 27.4181 14.1717C25.0069 15.5635 21.9744 14.9005 20.345 12.7275C20.2955 12.7315 20.2459 12.7338 20.1975 12.7338C20.131 12.7336 20.0651 12.7289 20.0012 12.7219C19.5699 12.6741 19.1601 12.4343 18.8801 12.0984C18.8342 12.0438 18.7892 11.9772 18.7964 11.9065C18.8072 11.8058 18.9188 11.7493 19.0183 11.7344C19.1272 11.718 19.2344 11.7184 19.3331 11.6643C19.3637 11.6479 19.553 11.4487 19.5447 11.4429C19.3361 11.3997 19.1354 11.3983 18.9401 11.3488C18.6837 11.2839 18.4419 11.19 18.2191 11.0591C18.0837 10.9803 17.9542 10.8873 17.8336 10.78C17.4835 10.467 17.0632 10.2557 16.6072 10.1675C16.3753 10.123 15.8 10.244 15.682 9.93824C15.6544 9.86535 15.6653 9.78456 15.6949 9.71433C15.8127 9.44005 16.0585 9.29627 16.2386 9.07793C16.5217 8.73348 16.9244 8.5051 17.3787 8.51556C17.7296 8.52321 18.0195 8.76774 18.3386 8.82852C18.1333 8.66484 17.9233 8.50851 17.7018 8.36622C17.6333 8.32201 17.5581 8.28524 17.4797 8.26667C17.0638 8.16923 16.6401 8.43482 16.196 8.34021C15.6925 8.23291 15.2967 7.87394 15.0584 7.42058C14.9076 7.13231 14.6668 6.90904 14.595 6.57511C14.577 6.48978 14.584 6.39675 14.6308 6.32446Z" fill="white"/>
</svg>
