<svg width="80" height="14" viewBox="0 0 80 14" fill="none" xmlns="http://www.w3.org/2000/svg">
<g clip-path="url(#clip0_1980_4838)">
<path opacity="0.2" d="M19.2499 9.5439C19.2499 10.5708 18.4175 11.4032 17.3906 11.4032C16.3637 11.4032 15.5312 10.5708 15.5312 9.5439C15.5312 8.51702 16.3637 7.68457 17.3906 7.68457C18.4175 7.68457 19.2499 8.51702 19.2499 9.5439Z" fill="#FFBD1B"/>
<path d="M10.6661 9.98265C10.7308 9.94163 10.812 9.89643 10.9058 9.84781C11.816 9.37605 13.9488 8.5856 14.3876 8.40556C14.4358 8.39302 14.4714 8.34972 14.4714 8.29768C14.4714 8.29502 14.4707 8.29274 14.4707 8.29047C14.4714 8.28971 14.4718 8.28933 14.4726 8.28857C14.4814 7.95925 14.4741 6.71299 14.4431 6.3096C14.4416 6.30922 14.4408 6.30846 14.4393 6.30808C14.4328 6.24427 14.3792 6.19451 14.3133 6.19451C14.3079 6.19451 14.3034 6.19527 14.298 6.19603C14.2976 6.19527 14.2968 6.19451 14.2961 6.19337C13.9051 6.23591 12.7135 6.38861 12.2437 6.4471C11.7382 6.51016 11.2317 6.55612 10.7231 6.56865C10.3793 6.57701 10.0358 6.57587 9.69159 6.55726C9.35463 6.53941 9.01844 6.51358 8.68454 6.47065C8.06346 6.39051 7.44889 6.26516 6.82398 6.20553C6.2523 6.15083 5.68215 6.1307 5.10931 6.18843C4.40629 6.25908 3.74233 6.45204 3.12163 6.78706C2.97842 6.86455 2.57445 7.02902 2.55531 7.2159C2.5488 7.28047 2.57331 7.34353 2.59858 7.40316C2.77012 7.80883 2.99297 8.19285 3.26063 8.54344C3.29968 8.59472 3.34066 8.64638 3.39541 8.68132C3.57346 8.79565 3.79325 8.6912 3.97284 8.6422C4.1172 8.60269 4.26155 8.55483 4.40744 8.51685C4.55103 8.47925 4.67624 8.41885 4.82826 8.40556C4.973 8.39302 5.1185 8.40518 5.25941 8.44088C5.54009 8.51267 5.79778 8.67638 5.97239 8.90657C6.24502 9.26589 6.30437 9.7726 6.12479 10.1855C6.02179 10.4221 5.84412 10.628 5.61935 10.7575C5.32949 10.9247 4.98142 10.9596 4.64599 10.9577C4.16391 10.955 3.67915 10.8787 3.2254 10.715C2.99833 10.6329 2.77931 10.5285 2.57522 10.3997C2.37687 10.2747 2.21682 10.0985 2.02192 9.97543C1.95874 9.93555 1.82778 9.88389 1.82242 9.88199C1.78872 9.86946 1.70602 9.86034 1.7018 9.86034C1.57736 9.86034 1.46861 9.92492 1.40658 10.0218C1.38475 10.0548 1.35987 10.0814 1.34417 10.1023C1.23465 10.247 0.0491666 12.0543 0.0491666 12.0543C-0.074896 12.2454 0.0545274 12.4087 0.229517 12.2822L0.495256 12.0904C0.589835 12.1907 0.703559 12.2757 0.79316 12.335C1.41271 12.7445 2.07514 13.0612 2.79616 13.2542C3.45361 13.4301 4.11911 13.5087 4.79992 13.4479C5.4524 13.3898 6.06582 13.1999 6.65167 12.9162C7.32406 12.5902 7.92714 12.1641 8.49308 11.6859C8.55167 11.6365 8.60987 11.5867 8.66731 11.5362C9.30332 10.9797 9.94814 10.4354 10.6657 9.98189L10.6661 9.98265Z" fill="#515151"/>
<path d="M14.8148 11.7835C14.953 11.6023 14.8366 11.4299 14.652 11.5427L14.4016 11.6958C14.3545 11.6407 14.3009 11.5913 14.2473 11.5431C13.4849 10.854 12.6 10.4643 11.5585 10.4548C11.3927 10.4533 11.2468 10.4442 11.0864 10.4955C10.9156 10.5502 10.7586 10.641 10.6123 10.7424C10.0422 11.1374 9.51263 11.5807 8.99111 12.0372C8.93827 12.0836 8.88466 12.1292 8.83105 12.1744C8.85403 12.182 8.877 12.1896 8.89998 12.1968C9.742 12.4615 10.5607 12.7832 11.3403 13.1973C11.6171 13.3443 11.8886 13.5008 12.1746 13.6295C12.2658 13.6706 12.358 13.7093 12.4518 13.7446C12.8018 13.8776 13.1032 13.8016 13.3701 13.5448C13.7618 13.168 14.4177 12.3081 14.4173 12.3077C14.4399 12.2826 14.814 11.7827 14.814 11.7827L14.8148 11.7835Z" fill="#515151"/>
<path fill-rule="evenodd" clip-rule="evenodd" d="M7.96556 1.9946C7.94604 1.99787 7.92669 2.00051 7.90687 2.00236C7.82963 2.0088 7.76017 1.99071 7.69033 1.97251C7.6323 1.9574 7.574 1.94221 7.51075 1.94097C7.35469 1.93829 7.19736 2.01206 7.07739 2.10532C7.05246 2.12451 7.02686 2.14889 7.02397 2.18095C7.01981 2.22708 7.06421 2.26331 7.10688 2.28026C7.11723 2.28435 7.12764 2.28808 7.138 2.2918L7.13801 2.2918C7.17432 2.30483 7.21001 2.31764 7.2405 2.34443C7.25281 2.35492 7.31997 2.46492 7.31467 2.46478C7.27157 2.46329 7.22993 2.45848 7.1889 2.45374C7.13868 2.44794 7.08939 2.44225 7.03948 2.44289C6.92035 2.44448 6.80508 2.46091 6.69529 2.49496C6.62856 2.5159 6.56349 2.54333 6.50078 2.57847C6.31892 2.68027 6.11476 2.72988 5.90535 2.72067C5.87548 2.71934 5.83497 2.70951 5.79038 2.69868C5.67503 2.67068 5.53234 2.63604 5.47545 2.72465C5.45668 2.75362 5.45414 2.79081 5.46137 2.82503C5.4799 2.91138 5.52665 2.97921 5.57372 3.04751C5.59958 3.08504 5.62554 3.12271 5.64697 3.16367C5.74244 3.34531 5.90064 3.48913 6.1024 3.53209C6.19172 3.55116 6.27897 3.53384 6.36478 3.5168C6.44999 3.49988 6.53379 3.48324 6.61684 3.50277C6.64828 3.51021 6.67819 3.52494 6.70565 3.54268C6.79442 3.59968 6.87846 3.66207 6.96069 3.72765C6.90613 3.71727 6.85373 3.6935 6.80065 3.66942C6.72937 3.63709 6.65686 3.60421 6.57626 3.60245C6.39426 3.59822 6.23306 3.68968 6.11961 3.8277C6.09417 3.85856 6.06546 3.88567 6.03688 3.91266C5.98442 3.9622 5.9324 4.01133 5.90184 4.08248C5.88994 4.11068 5.88564 4.14302 5.89681 4.17231C5.93089 4.26068 6.06014 4.26001 6.16438 4.25946C6.20469 4.25925 6.24126 4.25906 6.26713 4.26405C6.44984 4.29934 6.61823 4.38395 6.75848 4.50935C6.80681 4.55237 6.85861 4.58965 6.91287 4.62125C7.00213 4.67369 7.09892 4.71113 7.20163 4.73715C7.24423 4.74796 7.28741 4.75307 7.33139 4.75827L7.3314 4.75827L7.3314 4.75827C7.36823 4.76263 7.40563 4.76705 7.44373 4.77495C7.44847 4.77594 7.37162 4.8571 7.35926 4.86371C7.3288 4.88047 7.29637 4.88419 7.26314 4.888C7.25315 4.88915 7.24309 4.8903 7.23299 4.89182C7.1931 4.89778 7.14866 4.92024 7.1443 4.96062C7.14136 4.98898 7.15925 5.01544 7.17764 5.03735C7.28984 5.17201 7.45393 5.26817 7.62678 5.28729C7.65241 5.29009 7.67859 5.29204 7.70525 5.29211C7.72488 5.29211 7.74486 5.29133 7.76494 5.2897C8.41758 6.16031 9.63275 6.42555 10.5986 5.8679C11.1029 5.57674 11.4469 5.11458 11.5997 4.59694C11.2484 4.83897 10.8064 4.98756 10.2765 4.91558C10.1487 4.89821 10.0591 4.78048 10.0765 4.65262C10.0938 4.52476 10.2116 4.43518 10.3394 4.45255C10.8605 4.52334 11.2703 4.31452 11.5833 4.00493C11.6196 3.96903 11.6544 3.93193 11.6877 3.89394C11.6746 3.55128 11.5802 3.2067 11.3968 2.88909C10.9304 2.08121 10.0251 1.6847 9.15592 1.82683C8.88074 1.77828 8.5885 1.79417 8.29547 1.89158C8.2654 1.90151 8.23521 1.91234 8.20484 1.92323C8.12628 1.9514 8.04657 1.97999 7.96493 1.99443L7.96556 1.9946Z" fill="#515151"/>
<path d="M27.4627 4.21073C26.7305 4.21073 26.1717 4.3697 25.7863 4.68765C25.4009 5.0056 25.2082 5.48734 25.2082 6.13287V6.47972H29.0958V8.6909H25.2082V12.1594H22.3467V6.17622C22.3467 4.79845 22.7754 3.73381 23.6329 2.9823C24.4904 2.22115 25.6948 1.84058 27.246 1.84058C27.8337 1.84058 28.3829 1.89839 28.8935 2.014C29.4138 2.12962 29.857 2.29341 30.2231 2.50538L29.3849 4.7021C28.8261 4.37452 28.1854 4.21073 27.4627 4.21073Z" fill="#515151"/>
<path d="M35.0317 1.84058C35.9856 1.84058 36.8238 2.03327 37.5464 2.41866C38.2786 2.79442 38.8423 3.34842 39.2373 4.08066C39.642 4.80327 39.8443 5.67522 39.8443 6.6965V12.1594H36.9828V9.91933H33.0373V12.1594H30.2192V6.6965C30.2192 5.67522 30.4167 4.80327 30.8117 4.08066C31.2164 3.34842 31.78 2.79442 32.5026 2.41866C33.2348 2.03327 34.0779 1.84058 35.0317 1.84058ZM36.9828 7.70815V6.45081C36.9828 5.70894 36.8045 5.15012 36.448 4.77436C36.0915 4.39861 35.6146 4.21073 35.0173 4.21073C34.4103 4.21073 33.9285 4.39861 33.5721 4.77436C33.2156 5.15012 33.0373 5.70894 33.0373 6.45081V7.70815H36.9828Z" fill="#515151"/>
<path d="M46.8094 1.84058C48.0138 1.84058 48.9484 2.22597 49.6132 2.99675C50.278 3.7579 50.6104 4.84663 50.6104 6.26294V12.1594H47.7488V6.34965C47.7488 5.63668 47.585 5.10195 47.2575 4.74546C46.9395 4.38897 46.4915 4.21073 45.9134 4.21073C45.316 4.21073 44.8343 4.40343 44.4682 4.78882C44.1021 5.16457 43.919 5.73302 43.919 6.49417V12.1594H41.0575V2.04291H43.8323V3.19908C44.5164 2.29341 45.5087 1.84058 46.8094 1.84058Z" fill="#515151"/>
<path d="M56.8526 4.21073C56.1203 4.21073 55.5615 4.3697 55.1761 4.68765C54.7907 5.0056 54.598 5.48734 54.598 6.13287V6.47972H58.4857V8.6909H54.598V12.1594H51.7365V6.17622C51.7365 4.79845 52.1652 3.73381 53.0227 2.9823C53.8802 2.22115 55.0846 1.84058 56.6358 1.84058C57.2235 1.84058 57.7727 1.89839 58.2833 2.014C58.8036 2.12962 59.2468 2.29341 59.6129 2.50538L58.7747 4.7021C58.2159 4.37452 57.5752 4.21073 56.8526 4.21073Z" fill="#515151"/>
<path d="M64.4215 1.84058C65.3754 1.84058 66.2136 2.03327 66.9362 2.41866C67.6685 2.79442 68.2321 3.34842 68.6271 4.08066C69.0318 4.80327 69.2341 5.67522 69.2341 6.6965V12.1594H66.3726V9.91933H62.4271V12.1594H59.609V6.6965C59.609 5.67522 59.8065 4.80327 60.2015 4.08066C60.6062 3.34842 61.1698 2.79442 61.8924 2.41866C62.6247 2.03327 63.4677 1.84058 64.4215 1.84058ZM66.3726 7.70815V6.45081C66.3726 5.70894 66.1943 5.15012 65.8378 4.77436C65.4814 4.39861 65.0044 4.21073 64.4071 4.21073C63.8001 4.21073 63.3184 4.39861 62.9619 4.77436C62.6054 5.15012 62.4271 5.70894 62.4271 6.45081V7.70815H66.3726Z" fill="#515151"/>
<path d="M76.1993 1.84058C77.4036 1.84058 78.3382 2.22597 79.003 2.99675C79.6678 3.7579 80.0002 4.84663 80.0002 6.26294V12.1594H77.1386V6.34965C77.1386 5.63668 76.9749 5.10195 76.6473 4.74546C76.3293 4.38897 75.8813 4.21073 75.3032 4.21073C74.7059 4.21073 74.2241 4.40343 73.858 4.78882C73.4919 5.16457 73.3088 5.73302 73.3088 6.49417V12.1594H70.4473V2.04291H73.2221V3.19908C73.9062 2.29341 74.8986 1.84058 76.1993 1.84058Z" fill="#515151"/>
</g>
<defs>
<clipPath id="clip0_1980_4838">
<rect width="80.0005" height="13.6181" fill="white" transform="translate(0 0.190918)"/>
</clipPath>
</defs>
</svg>
