<svg width="144" height="24" viewBox="0 0 144 24" fill="none" xmlns="http://www.w3.org/2000/svg">
<path d="M33.9246 16.4811C33.9246 18.2908 32.4575 19.7578 30.6478 19.7578C28.8381 19.7578 27.3711 18.2908 27.3711 16.4811C27.3711 14.6714 28.8381 13.2043 30.6478 13.2043C32.4575 13.2043 33.9246 14.6714 33.9246 16.4811Z" fill="#FFBD1B"/>
<path d="M18.7972 17.253C18.9112 17.1807 19.0543 17.1011 19.2196 17.0154C20.8237 16.184 24.5824 14.791 25.3557 14.4737C25.4407 14.4516 25.5035 14.3753 25.5035 14.2836C25.5035 14.2789 25.5022 14.2749 25.5022 14.2708C25.5035 14.2695 25.5042 14.2688 25.5055 14.2675C25.521 13.6871 25.5082 11.4908 25.4536 10.7799C25.4509 10.7792 25.4495 10.7779 25.4468 10.7772C25.4353 10.6648 25.3409 10.5771 25.2248 10.5771C25.2154 10.5771 25.2073 10.5784 25.1978 10.5798C25.1971 10.5784 25.1958 10.5771 25.1944 10.5751C24.5055 10.65 22.4054 10.9191 21.5774 11.0222C20.6867 11.1333 19.7939 11.2143 18.8978 11.2364C18.2918 11.2512 17.6865 11.2492 17.0798 11.2164C16.486 11.1849 15.8935 11.1394 15.305 11.0637C14.2105 10.9225 13.1274 10.7016 12.0261 10.5965C11.0186 10.5001 10.0138 10.4646 9.00431 10.5664C7.76535 10.6909 6.59523 11.0309 5.50135 11.6213C5.24897 11.7579 4.53704 12.0478 4.5033 12.3771C4.49183 12.4909 4.53502 12.602 4.57956 12.7071C4.88187 13.422 5.27462 14.0988 5.74631 14.7167C5.81514 14.807 5.88735 14.8981 5.98384 14.9597C6.29763 15.1611 6.68498 14.9771 7.00146 14.8907C7.25587 14.8211 7.51027 14.7367 7.76738 14.6698C8.02043 14.6035 8.2411 14.4971 8.509 14.4737C8.76408 14.4516 9.0205 14.473 9.26884 14.5359C9.76347 14.6624 10.2176 14.951 10.5253 15.3566C11.0058 15.9899 11.1104 16.8829 10.7939 17.6105C10.6124 18.0275 10.2993 18.3904 9.90316 18.6186C9.39233 18.9132 8.77892 18.9747 8.18779 18.9714C7.3382 18.9667 6.48388 18.8322 5.68423 18.5436C5.28406 18.3991 4.89807 18.215 4.53839 17.988C4.18884 17.7678 3.90677 17.4572 3.56329 17.2403C3.45194 17.17 3.22116 17.079 3.21171 17.0756C3.15233 17.0536 3.00657 17.0375 2.99914 17.0375C2.77983 17.0375 2.58818 17.1513 2.47886 17.322C2.4404 17.3802 2.39653 17.4271 2.36887 17.4639C2.17587 17.7189 0.086648 20.904 0.086648 20.904C-0.131992 21.2407 0.0960953 21.5285 0.404485 21.3056L0.872806 20.9676C1.03948 21.1443 1.2399 21.2942 1.39781 21.3986C2.48966 22.1203 3.65709 22.6785 4.92776 23.0186C6.08642 23.3285 7.25924 23.4671 8.45906 23.36C9.60894 23.2576 10.69 22.9229 11.7225 22.4228C12.9074 21.8485 13.9703 21.0974 14.9676 20.2546C15.0709 20.1676 15.1735 20.0799 15.2747 19.9909C16.3955 19.0102 17.5319 18.051 18.7965 17.2517L18.7972 17.253Z" fill="white"/>
<path d="M26.1078 20.4296C26.3514 20.1103 26.1463 19.8064 25.821 20.0052L25.3797 20.2749C25.2967 20.1779 25.2022 20.0908 25.1077 20.0058C23.7642 18.7915 22.2047 18.1047 20.3692 18.088C20.077 18.0853 19.8199 18.0693 19.5372 18.1596C19.2362 18.256 18.9595 18.416 18.7017 18.5947C17.6969 19.2909 16.7637 20.0721 15.8446 20.8767C15.7514 20.9584 15.657 21.0387 15.5625 21.1184C15.603 21.1318 15.6435 21.1452 15.684 21.1579C17.1679 21.6245 18.6106 22.1914 19.9846 22.9211C20.4724 23.1801 20.9509 23.4559 21.455 23.6829C21.6156 23.7552 21.7782 23.8234 21.9435 23.8857C22.5603 24.12 23.0914 23.9861 23.5617 23.5336C24.2521 22.8695 25.408 21.354 25.4074 21.3533C25.4472 21.3092 26.1065 20.4282 26.1065 20.4282L26.1078 20.4296Z" fill="white"/>
<path fill-rule="evenodd" clip-rule="evenodd" d="M14.0322 3.17927C13.9978 3.18502 13.9637 3.18968 13.9288 3.19293C13.7927 3.20428 13.6703 3.1724 13.5472 3.14033C13.4449 3.11369 13.3422 3.08693 13.2307 3.08475C12.9557 3.08002 12.6784 3.21002 12.467 3.37438C12.423 3.40821 12.3779 3.45117 12.3728 3.50768C12.3655 3.58897 12.4437 3.65281 12.5189 3.68269C12.5372 3.68989 12.5555 3.69647 12.5738 3.70303C12.6378 3.72599 12.7007 3.74857 12.7544 3.79577C12.7761 3.81425 12.8945 4.00811 12.8851 4.00786C12.8092 4.00524 12.7358 3.99677 12.6635 3.98842L12.6635 3.98842L12.6635 3.98842C12.575 3.9782 12.4881 3.96816 12.4002 3.96929C12.1902 3.9721 11.9871 4.00105 11.7936 4.06107C11.676 4.09796 11.5613 4.1463 11.4508 4.20823C11.1303 4.38763 10.7705 4.47507 10.4015 4.45884C10.3488 4.45649 10.2774 4.43916 10.1988 4.42008L10.1988 4.42008C9.99556 4.37074 9.74407 4.3097 9.64383 4.46585C9.61075 4.5169 9.60627 4.58244 9.61901 4.64275C9.65166 4.79493 9.73405 4.91447 9.817 5.03483C9.86258 5.10097 9.90834 5.16736 9.9461 5.23955C10.1144 5.55966 10.3932 5.81312 10.7487 5.88883C10.9061 5.92243 11.0599 5.89191 11.2111 5.86187C11.3613 5.83206 11.509 5.80273 11.6553 5.83715C11.7107 5.85027 11.7634 5.87622 11.8119 5.90748C11.9683 6.00794 12.1164 6.1179 12.2613 6.23346C12.1652 6.21517 12.0728 6.17328 11.9793 6.13086C11.8536 6.07388 11.7259 6.01592 11.5838 6.01282C11.2631 6.00536 10.979 6.16656 10.779 6.4098C10.7342 6.46418 10.6836 6.51196 10.6333 6.55952C10.5408 6.64683 10.4491 6.73341 10.3953 6.8588C10.3743 6.9085 10.3667 6.96549 10.3864 7.0171C10.4465 7.17285 10.6742 7.17166 10.8579 7.1707C10.929 7.17033 10.9934 7.16999 11.039 7.17878C11.361 7.24097 11.6578 7.39009 11.905 7.61108C11.9901 7.68689 12.0814 7.7526 12.177 7.80828C12.3343 7.90071 12.5049 7.96669 12.6859 8.01254C12.761 8.03159 12.8371 8.0406 12.9146 8.04977L12.9146 8.04977C12.9795 8.05745 13.0454 8.06524 13.1126 8.07915C13.1209 8.0809 12.9855 8.22394 12.9637 8.23558C12.91 8.26512 12.8529 8.27168 12.7943 8.27839L12.7943 8.27839C12.7767 8.28041 12.759 8.28244 12.7412 8.28512C12.6709 8.29563 12.5926 8.33521 12.5849 8.40637C12.5797 8.45635 12.6112 8.50299 12.6437 8.5416C12.8414 8.77891 13.1306 8.94838 13.4352 8.98208C13.4803 8.98701 13.5265 8.99045 13.5735 8.99057C13.6078 8.99057 13.6427 8.98921 13.6777 8.98639C14.828 10.5202 16.9692 10.9874 18.6712 10.0048C19.559 9.49223 20.1649 8.67893 20.4345 7.76786C19.816 8.19311 19.0381 8.45388 18.1058 8.32724C17.8805 8.29664 17.7226 8.08915 17.7533 7.86382C17.7839 7.63848 17.9913 7.48063 18.2167 7.51123C19.1351 7.63598 19.8572 7.26798 20.4088 6.72238C20.472 6.65989 20.5326 6.59531 20.5906 6.52923C20.5679 5.92429 20.4016 5.31588 20.0778 4.75514C19.2557 3.33117 17.6599 2.63238 16.1279 2.88321C15.6436 2.79812 15.1293 2.82629 14.6136 2.9977C14.5607 3.0152 14.5074 3.03428 14.4539 3.05347C14.3155 3.10313 14.175 3.15351 14.0311 3.17896L14.0322 3.17927Z" fill="white"/>
<path d="M48.7765 6.98525C47.4599 6.98525 46.4552 7.27108 45.7623 7.84272C45.0694 8.41437 44.723 9.2805 44.723 10.4411V11.0647H51.7126V15.0403H44.723V21.2764H39.5781V10.5191C39.5781 8.04193 40.349 6.12778 41.8907 4.77661C43.4324 3.40812 45.5977 2.72388 48.3867 2.72388C49.4434 2.72388 50.4308 2.82781 51.3489 3.03569C52.2843 3.24356 53.0811 3.53804 53.7394 3.91914L52.2323 7.86871C51.2276 7.27974 50.0757 6.98525 48.7765 6.98525Z" fill="white"/>
<path d="M62.385 2.72388C64.0999 2.72388 65.607 3.07033 66.9062 3.76324C68.2227 4.43882 69.2361 5.43487 69.9463 6.7514C70.6739 8.0506 71.0376 9.6183 71.0376 11.4545V21.2764H65.8928V17.2489H58.7992V21.2764H53.7323V11.4545C53.7323 9.6183 54.0874 8.0506 54.7976 6.7514C55.5252 5.43487 56.5386 4.43882 57.8378 3.76324C59.1543 3.07033 60.67 2.72388 62.385 2.72388ZM65.8928 13.2734V11.0128C65.8928 9.67893 65.5723 8.67421 64.9314 7.99863C64.2905 7.32304 63.433 6.98525 62.359 6.98525C61.2677 6.98525 60.4015 7.32304 59.7606 7.99863C59.1196 8.67421 58.7992 9.67893 58.7992 11.0128V13.2734H65.8928Z" fill="white"/>
<path d="M83.5605 2.72388C85.7258 2.72388 87.4061 3.41678 88.6014 4.8026C89.7967 6.17109 90.3943 8.12855 90.3943 10.675V21.2764H85.2495V10.8309C85.2495 9.54901 84.955 8.5876 84.366 7.94666C83.7944 7.30572 82.9888 6.98525 81.9495 6.98525C80.8755 6.98525 80.0093 7.33171 79.3511 8.02461C78.6928 8.7002 78.3637 9.72223 78.3637 11.0907V21.2764H73.2189V3.08765H78.2078V5.16637C79.4377 3.53804 81.2219 2.72388 83.5605 2.72388Z" fill="white"/>
<path d="M101.617 6.98525C100.301 6.98525 99.2961 7.27108 98.6032 7.84272C97.9103 8.41437 97.5638 9.2805 97.5638 10.4411V11.0647H104.554V15.0403H97.5638V21.2764H92.419V10.5191C92.419 8.04193 93.1899 6.12778 94.7316 4.77661C96.2733 3.40812 98.4386 2.72388 101.228 2.72388C102.284 2.72388 103.272 2.82781 104.19 3.03569C105.125 3.24356 105.922 3.53804 106.58 3.91914L105.073 7.86871C104.068 7.27974 102.917 6.98525 101.617 6.98525Z" fill="white"/>
<path d="M115.226 2.72388C116.941 2.72388 118.448 3.07033 119.747 3.76324C121.064 4.43882 122.077 5.43487 122.787 6.7514C123.515 8.0506 123.879 9.6183 123.879 11.4545V21.2764H118.734V17.2489H111.64V21.2764H106.573V11.4545C106.573 9.6183 106.928 8.0506 107.639 6.7514C108.366 5.43487 109.379 4.43882 110.679 3.76324C111.995 3.07033 113.511 2.72388 115.226 2.72388ZM118.734 13.2734V11.0128C118.734 9.67893 118.413 8.67421 117.772 7.99863C117.131 7.32304 116.274 6.98525 115.2 6.98525C114.109 6.98525 113.242 7.32304 112.601 7.99863C111.961 8.67421 111.64 9.67893 111.64 11.0128V13.2734H118.734Z" fill="white"/>
<path d="M136.401 2.72388C138.567 2.72388 140.247 3.41678 141.442 4.8026C142.638 6.17109 143.235 8.12855 143.235 10.675V21.2764H138.09V10.8309C138.09 9.54901 137.796 8.5876 137.207 7.94666C136.635 7.30572 135.83 6.98525 134.79 6.98525C133.716 6.98525 132.85 7.33171 132.192 8.02461C131.534 8.7002 131.205 9.72223 131.205 11.0907V21.2764H126.06V3.08765H131.049V5.16637C132.279 3.53804 134.063 2.72388 136.401 2.72388Z" fill="white"/>
</svg>
